<?xml version="1.0" standalone="no"?>
<!DOCTYPE svg PUBLIC "-//W3C//DTD SVG 20010904//EN"
 "http://www.w3.org/TR/2001/REC-SVG-20010904/DTD/svg10.dtd">
<svg version="1.0" xmlns="http://www.w3.org/2000/svg"
 width="123.000000pt" height="112.000000pt" viewBox="0 0 123.000000 112.000000"
 preserveAspectRatio="xMidYMid meet">

<g transform="translate(0.000000,112.000000) scale(0.100000,-0.100000)"
fill="#000000" stroke="none">
<path d="M445 1094 c-198 -48 -365 -200 -422 -385 -24 -76 -21 -226 4 -301 65
-187 232 -332 433 -374 94 -20 238 -13 330 15 271 85 443 358 388 615 -24 106
-63 180 -140 261 -78 83 -170 136 -284 165 -92 24 -221 25 -309 4z m290 -109
c133 -35 258 -136 313 -252 24 -51 27 -69 26 -158 0 -115 -15 -156 -83 -243
-119 -149 -350 -214 -548 -154 -138 42 -258 149 -303 269 -31 82 -26 204 12
286 53 114 179 216 309 251 72 19 201 20 274 1z m-519 -700 c4 -8 10 -15 15
-15 6 0 24 -15 41 -32 18 -18 34 -32 35 -30 4 3 64 -27 82 -42 7 -6 19 -11 25
-11 27 -2 86 -18 86 -24 0 -3 12 -6 28 -6 30 0 32 -2 32 -45 0 -34 -23 -41
-39 -12 -6 9 -11 11 -11 5 0 -20 -20 -15 -21 5 0 10 -3 12 -6 5 -8 -21 -23
-15 -24 10 -1 16 -2 18 -6 5 -5 -18 -33 -24 -47 -10 -4 4 -11 7 -15 7 -23 0
-91 40 -87 51 7 17 -11 28 -18 12 -5 -10 -7 -10 -12 0 -3 6 -12 12 -20 12 -8
0 -17 7 -20 15 -4 8 -10 15 -15 15 -14 0 -59 47 -59 62 0 33 45 51 56 23z
m814 -25 c7 -13 2 -24 -20 -45 -29 -28 -30 -28 -51 -9 -22 19 -22 19 -10 -4
16 -30 4 -43 -15 -18 -15 22 -19 10 -4 -14 7 -11 -5 -22 -51 -48 -33 -19 -62
-32 -65 -30 -11 12 -16 68 -5 68 6 0 11 -7 11 -15 0 -8 5 -15 10 -15 6 0 8 10
4 23 -4 20 0 26 26 37 18 7 55 32 83 56 52 42 70 46 87 14z m-247 -117 c2 -5
7 -21 11 -37 6 -23 4 -27 -8 -23 -8 3 -16 2 -18 -3 -7 -19 -159 -34 -170 -17
-12 19 -9 58 5 56 6 -2 32 1 57 6 25 4 56 9 68 11 13 1 26 5 30 8 8 8 20 7 25
-1z"/>
<path d="M494 966 c-223 -51 -374 -237 -349 -431 19 -158 168 -307 343 -344
114 -24 236 -9 339 40 74 35 175 142 201 212 45 120 23 264 -58 365 -101 128
-307 196 -476 158z m162 -66 c11 0 14 -25 14 -131 0 -130 0 -130 -22 -127 -19
2 -23 9 -23 36 0 17 -3 32 -7 32 -5 0 -8 -13 -8 -29 0 -64 -39 -48 -51 21 l-6
43 -2 -52 c-1 -46 -4 -53 -21 -53 -21 0 -21 -4 -24 223 -1 29 2 32 30 35 34 3
42 -10 45 -73 1 -25 3 -23 11 15 15 69 17 73 34 66 9 -3 22 -6 30 -6z m125
-40 c37 -52 21 -92 -20 -51 -12 12 -24 21 -28 21 -4 0 10 -17 30 -38 45 -46
55 -87 33 -131 -22 -41 -65 -43 -95 -5 -30 38 -28 74 4 74 18 0 25 -5 25 -20
0 -11 7 -20 15 -20 26 0 16 24 -22 56 -32 27 -38 38 -38 72 0 21 7 47 14 56
20 23 60 16 82 -14z m-307 -12 c21 -30 21 -148 1 -188 -17 -33 -59 -49 -84
-33 -25 16 -41 54 -41 100 0 106 80 184 124 121z m377 -8 c17 -10 19 -22 19
-121 0 -109 0 -110 -22 -107 -22 3 -23 7 -26 121 -1 64 0 117 3 117 4 0 15 -5
26 -10z m88 -66 c43 -38 66 -91 56 -124 -7 -22 -17 -25 -46 -10 -17 10 -19 7
-19 -20 0 -30 -13 -37 -37 -22 -9 6 -11 35 -6 110 3 56 8 102 9 102 2 0 22
-16 43 -36z m-605 3 c14 -22 -5 -53 -30 -50 -25 2 -34 -14 -34 -60 0 -42 22
-49 28 -9 2 16 10 22 28 22 22 0 24 -3 18 -27 -8 -35 -32 -63 -64 -75 -20 -8
-28 -5 -42 12 -33 41 -14 126 40 183 28 29 40 30 56 4z m289 -247 c169 0 197
-2 197 -15 0 -17 8 -17 -233 -16 -98 0 -182 3 -187 6 -6 4 -10 2 -10 -3 0 -8
-200 -5 -209 3 -2 2 -1 10 1 17 4 10 34 12 124 10 66 -1 208 -2 317 -2z m395
-18 c-2 -11 -13 -15 -36 -15 -17 1 -59 2 -92 2 -50 1 -60 4 -60 19 0 15 10 17
96 14 81 -3 95 -6 92 -20z m-44 -98 c9 -25 -4 -42 -27 -36 -19 5 -20 3 -9 -10
16 -19 2 -31 -25 -21 -15 5 -16 4 -7 -8 9 -11 9 -17 -1 -26 -9 -8 -16 -9 -20
-3 -9 15 -25 2 -19 -14 3 -8 0 -17 -7 -22 -7 -4 -15 -2 -17 4 -6 20 -20 13
-15 -7 4 -16 0 -19 -21 -17 -14 2 -26 0 -26 -4 0 -15 -33 -21 -42 -8 -6 10 -8
9 -8 -3 0 -24 -28 -31 -39 -11 -10 16 -10 16 -11 0 0 -20 -25 -24 -36 -7 -5 8
-10 6 -16 -5 -12 -21 -38 -21 -38 2 0 14 -2 14 -9 3 -12 -19 -41 -23 -41 -5 0
16 -17 19 -22 3 -6 -18 -37 1 -32 19 5 15 4 15 -8 2 -17 -21 -49 -14 -41 8 6
14 4 15 -8 5 -15 -12 -41 -3 -38 13 3 19 -2 28 -9 16 -12 -18 -42 -4 -34 16 5
15 3 15 -11 4 -21 -17 -40 -6 -34 20 4 15 1 18 -13 13 -23 -7 -37 14 -19 27
11 8 10 8 -4 4 -10 -3 -24 0 -32 7 -17 18 1 41 39 51 25 6 28 5 23 -13 -4 -16
0 -21 15 -21 14 0 18 -5 14 -15 -4 -11 1 -15 19 -15 18 0 23 -4 18 -16 -5 -13
-2 -15 15 -9 18 5 22 2 22 -16 0 -18 3 -20 12 -11 16 16 28 15 28 -3 0 -12 7
-14 26 -9 18 5 25 3 20 -4 -3 -6 -2 -13 4 -17 5 -3 10 -1 10 4 0 6 7 11 15 11
8 0 15 -7 15 -15 0 -8 5 -15 10 -15 6 0 10 5 10 10 0 15 30 12 31 -2 0 -10 2
-10 6 0 6 14 33 16 33 2 0 -5 5 -10 10 -10 6 0 10 7 10 15 0 17 16 20 25 4 5
-6 12 -4 22 8 10 13 16 15 19 6 8 -18 24 -16 24 2 0 18 12 19 28 3 9 -9 12 -8
12 6 0 13 5 17 20 13 15 -4 20 0 20 15 0 15 5 18 20 13 14 -5 20 -2 20 9 0 9
8 16 20 16 13 0 18 5 13 16 -4 11 -1 15 13 12 11 -2 19 3 20 12 2 26 3 27 28
23 14 -3 27 -11 30 -19z"/>
<path d="M411 791 c-22 -39 -11 -114 15 -104 10 3 14 22 14 58 0 58 -13 77
-29 46z"/>
<path d="M930 711 c0 -6 5 -13 10 -16 6 -3 10 1 10 9 0 9 -4 16 -10 16 -5 0
-10 -4 -10 -9z"/>
<path d="M186 271 c-3 -5 1 -11 9 -14 9 -4 12 -1 8 9 -6 16 -10 17 -17 5z"/>
</g>
</svg>
